<svg width="21" height="20" viewBox="0 0 21 20" fill="none" xmlns="http://www.w3.org/2000/svg">
<path fill-rule="evenodd" clip-rule="evenodd" d="M16.4167 15.9666C16.9083 15.2166 17.0917 14.8333 17.4667 13.9916C14.7 12.9416 14.2583 8.99991 16.9917 7.49158C16.1583 6.44158 14.9833 5.83325 13.875 5.83325C13.075 5.83325 12.525 6.04159 12.0333 6.23326C11.6167 6.39159 11.2417 6.53325 10.775 6.53325C10.275 6.53325 9.83333 6.37493 9.36666 6.20826C8.85833 6.02493 8.32499 5.83325 7.65832 5.83325C6.41666 5.83325 5.09166 6.59159 4.24999 7.89159C3.06666 9.72492 3.275 13.1582 5.18333 16.0916C5.86666 17.1416 6.78333 18.3166 7.975 18.3333C8.475 18.3416 8.79999 18.1916 9.15833 18.0333C9.56666 17.8499 10.0083 17.6499 10.7833 17.6499C11.5583 17.6416 11.9917 17.8499 12.4 18.0333C12.75 18.1916 13.0667 18.3416 13.5583 18.3333C14.7667 18.3166 15.7333 17.0166 16.4167 15.9666Z" fill="#263038"/>
<path fill-rule="evenodd" clip-rule="evenodd" d="M13.7 1.66675C13.8333 2.58341 13.4583 3.49176 12.9667 4.12509C12.4417 4.80843 11.525 5.34174 10.6417 5.30841C10.4833 4.42508 10.8917 3.51674 11.3917 2.90841C11.95 2.24174 12.8917 1.72508 13.7 1.66675Z" fill="#263038"/>
</svg>
