<svg width="21" height="20" viewBox="0 0 21 20" fill="none" xmlns="http://www.w3.org/2000/svg">
<path d="M5.72745 11.7883L5.13073 14.0159L2.94973 14.062C2.29793 12.8531 1.92822 11.4699 1.92822 10C1.92822 8.57868 2.27389 7.23832 2.88662 6.05811H2.88709L4.82879 6.41409L5.67937 8.34414C5.50135 8.86315 5.40432 9.42029 5.40432 10C5.40438 10.6292 5.51836 11.2321 5.72745 11.7883Z" fill="#FBBB00"/>
<path d="M18.9213 8.39893C19.0198 8.91743 19.0711 9.45291 19.0711 10.0002C19.0711 10.6138 19.0066 11.2124 18.8837 11.7898C18.4664 13.7547 17.3761 15.4704 15.8658 16.6845L15.8653 16.684L13.4196 16.5593L13.0735 14.3985C14.0757 13.8107 14.8589 12.8909 15.2715 11.7898H10.6881V8.39893H15.3383H18.9213Z" fill="#518EF8"/>
<path d="M15.8653 16.6839L15.8658 16.6844C14.3969 17.8651 12.5309 18.5715 10.4997 18.5715C7.23547 18.5715 4.39748 16.7471 2.94974 14.0621L5.72746 11.7883C6.45131 13.7202 8.3149 15.0954 10.4997 15.0954C11.4388 15.0954 12.3185 14.8415 13.0735 14.3984L15.8653 16.6839Z" fill="#28B446"/>
<path d="M15.9709 3.40202L13.1941 5.67533C12.4128 5.18696 11.4892 4.90484 10.4997 4.90484C8.26548 4.90484 6.36704 6.34314 5.67945 8.34427L2.88713 6.05824H2.88666C4.3132 3.30784 7.18698 1.42871 10.4997 1.42871C12.5795 1.42871 14.4864 2.16954 15.9709 3.40202Z" fill="#F14336"/>
</svg>
