<svg width="20" height="20" viewBox="0 0 20 20" fill="none" xmlns="http://www.w3.org/2000/svg">
<path d="M5 8.33341V6.66675C5 3.90841 5.83333 1.66675 10 1.66675C14.1667 1.66675 15 3.90841 15 6.66675V8.33341" stroke="#515960" stroke-width="1.5" stroke-linecap="round" stroke-linejoin="round"/>
<path d="M5 8.33341V6.66675C5 3.90841 5.83333 1.66675 10 1.66675C14.1667 1.66675 15 3.90841 15 6.66675V8.33341" stroke="black" stroke-opacity="0.2" stroke-width="1.5" stroke-linecap="round" stroke-linejoin="round"/>
<path d="M14.1667 18.3333H5.83335C2.50002 18.3333 1.66669 17.4999 1.66669 14.1666V12.4999C1.66669 9.16659 2.50002 8.33325 5.83335 8.33325H14.1667C17.5 8.33325 18.3334 9.16659 18.3334 12.4999V14.1666C18.3334 17.4999 17.5 18.3333 14.1667 18.3333Z" stroke="#515960" stroke-width="1.5" stroke-linecap="round" stroke-linejoin="round"/>
<path d="M14.1667 18.3333H5.83335C2.50002 18.3333 1.66669 17.4999 1.66669 14.1666V12.4999C1.66669 9.16659 2.50002 8.33325 5.83335 8.33325H14.1667C17.5 8.33325 18.3334 9.16659 18.3334 12.4999V14.1666C18.3334 17.4999 17.5 18.3333 14.1667 18.3333Z" stroke="black" stroke-opacity="0.2" stroke-width="1.5" stroke-linecap="round" stroke-linejoin="round"/>
<path d="M13.3304 13.3334H13.3378" stroke="#515960" stroke-width="2" stroke-linecap="round" stroke-linejoin="round"/>
<path d="M13.3304 13.3334H13.3378" stroke="black" stroke-opacity="0.2" stroke-width="2" stroke-linecap="round" stroke-linejoin="round"/>
<path d="M9.99626 13.3334H10.0037" stroke="#515960" stroke-width="2" stroke-linecap="round" stroke-linejoin="round"/>
<path d="M9.99626 13.3334H10.0037" stroke="black" stroke-opacity="0.2" stroke-width="2" stroke-linecap="round" stroke-linejoin="round"/>
<path d="M6.66209 13.3334H6.66957" stroke="#515960" stroke-width="2" stroke-linecap="round" stroke-linejoin="round"/>
<path d="M6.66209 13.3334H6.66957" stroke="black" stroke-opacity="0.2" stroke-width="2" stroke-linecap="round" stroke-linejoin="round"/>
</svg>
