<svg width="20" height="20" viewBox="0 0 20 20" fill="none" xmlns="http://www.w3.org/2000/svg">
<path d="M5.83368 3.41675H14.1667C15.34 3.41675 16.2415 3.71062 16.8474 4.27319C17.4463 4.82955 17.8337 5.72091 17.8337 7.08374V12.9167C17.8337 14.2797 17.4464 15.1709 16.8474 15.7273C16.2415 16.2899 15.34 16.5837 14.1667 16.5837H5.83368C4.66037 16.5837 3.75886 16.2898 3.15302 15.7273C2.55388 15.171 2.16669 14.2798 2.16669 12.9167V7.08374C2.16669 5.72077 2.55393 4.82954 3.15302 4.27319C3.75886 3.71062 4.66033 3.41675 5.83368 3.41675ZM15.0368 6.79272C14.6504 6.29923 13.9372 6.23496 13.4626 6.61792L10.8542 8.70093V8.7019C10.6422 8.87206 10.3313 8.97339 9.99579 8.97339C9.66045 8.97338 9.35034 8.87192 9.13837 8.7019L9.13739 8.70093L6.52899 6.61792C6.03751 6.22133 5.33502 6.32387 4.9538 6.79272L4.94794 6.80054C4.57344 7.27989 4.6466 7.9896 5.12665 8.37964L5.12958 8.38257L7.73407 10.4617V10.4626C8.37761 10.9874 9.20226 11.2331 9.99969 11.2332C10.7992 11.2332 11.6134 10.9865 12.2624 10.4656L14.8708 8.38257L14.8737 8.37964C15.3501 7.99251 15.4271 7.28746 15.0475 6.8064H15.0485C15.046 6.80307 15.0433 6.79992 15.0407 6.79663C15.0398 6.79549 15.0387 6.79386 15.0378 6.79272H15.0368Z" fill="#515960"/>
<path d="M5.83368 3.41675H14.1667C15.34 3.41675 16.2415 3.71062 16.8474 4.27319C17.4463 4.82955 17.8337 5.72091 17.8337 7.08374V12.9167C17.8337 14.2797 17.4464 15.1709 16.8474 15.7273C16.2415 16.2899 15.34 16.5837 14.1667 16.5837H5.83368C4.66037 16.5837 3.75886 16.2898 3.15302 15.7273C2.55388 15.171 2.16669 14.2798 2.16669 12.9167V7.08374C2.16669 5.72077 2.55393 4.82954 3.15302 4.27319C3.75886 3.71062 4.66033 3.41675 5.83368 3.41675ZM15.0368 6.79272C14.6504 6.29923 13.9372 6.23496 13.4626 6.61792L10.8542 8.70093V8.7019C10.6422 8.87206 10.3313 8.97339 9.99579 8.97339C9.66045 8.97338 9.35034 8.87192 9.13837 8.7019L9.13739 8.70093L6.52899 6.61792C6.03751 6.22133 5.33502 6.32387 4.9538 6.79272L4.94794 6.80054C4.57344 7.27989 4.6466 7.9896 5.12665 8.37964L5.12958 8.38257L7.73407 10.4617V10.4626C8.37761 10.9874 9.20226 11.2331 9.99969 11.2332C10.7992 11.2332 11.6134 10.9865 12.2624 10.4656L14.8708 8.38257L14.8737 8.37964C15.3501 7.99251 15.4271 7.28746 15.0475 6.8064H15.0485C15.046 6.80307 15.0433 6.79992 15.0407 6.79663C15.0398 6.79549 15.0387 6.79386 15.0378 6.79272H15.0368Z" fill="black" fill-opacity="0.2"/>
<path d="M5.83368 3.41675H14.1667C15.34 3.41675 16.2415 3.71062 16.8474 4.27319C17.4463 4.82955 17.8337 5.72091 17.8337 7.08374V12.9167C17.8337 14.2797 17.4464 15.1709 16.8474 15.7273C16.2415 16.2899 15.34 16.5837 14.1667 16.5837H5.83368C4.66037 16.5837 3.75886 16.2898 3.15302 15.7273C2.55388 15.171 2.16669 14.2798 2.16669 12.9167V7.08374C2.16669 5.72077 2.55393 4.82954 3.15302 4.27319C3.75886 3.71062 4.66033 3.41675 5.83368 3.41675ZM15.0368 6.79272C14.6504 6.29923 13.9372 6.23496 13.4626 6.61792L10.8542 8.70093V8.7019C10.6422 8.87206 10.3313 8.97339 9.99579 8.97339C9.66045 8.97338 9.35034 8.87192 9.13837 8.7019L9.13739 8.70093L6.52899 6.61792C6.03751 6.22133 5.33502 6.32387 4.9538 6.79272L4.94794 6.80054C4.57344 7.27989 4.6466 7.9896 5.12665 8.37964L5.12958 8.38257L7.73407 10.4617V10.4626C8.37761 10.9874 9.20226 11.2331 9.99969 11.2332C10.7992 11.2332 11.6134 10.9865 12.2624 10.4656L14.8708 8.38257L14.8737 8.37964C15.3501 7.99251 15.4271 7.28746 15.0475 6.8064H15.0485C15.046 6.80307 15.0433 6.79992 15.0407 6.79663C15.0398 6.79549 15.0387 6.79386 15.0378 6.79272H15.0368Z" stroke="#515960"/>
<path d="M5.83368 3.41675H14.1667C15.34 3.41675 16.2415 3.71062 16.8474 4.27319C17.4463 4.82955 17.8337 5.72091 17.8337 7.08374V12.9167C17.8337 14.2797 17.4464 15.1709 16.8474 15.7273C16.2415 16.2899 15.34 16.5837 14.1667 16.5837H5.83368C4.66037 16.5837 3.75886 16.2898 3.15302 15.7273C2.55388 15.171 2.16669 14.2798 2.16669 12.9167V7.08374C2.16669 5.72077 2.55393 4.82954 3.15302 4.27319C3.75886 3.71062 4.66033 3.41675 5.83368 3.41675ZM15.0368 6.79272C14.6504 6.29923 13.9372 6.23496 13.4626 6.61792L10.8542 8.70093V8.7019C10.6422 8.87206 10.3313 8.97339 9.99579 8.97339C9.66045 8.97338 9.35034 8.87192 9.13837 8.7019L9.13739 8.70093L6.52899 6.61792C6.03751 6.22133 5.33502 6.32387 4.9538 6.79272L4.94794 6.80054C4.57344 7.27989 4.6466 7.9896 5.12665 8.37964L5.12958 8.38257L7.73407 10.4617V10.4626C8.37761 10.9874 9.20226 11.2331 9.99969 11.2332C10.7992 11.2332 11.6134 10.9865 12.2624 10.4656L14.8708 8.38257L14.8737 8.37964C15.3501 7.99251 15.4271 7.28746 15.0475 6.8064H15.0485C15.046 6.80307 15.0433 6.79992 15.0407 6.79663C15.0398 6.79549 15.0387 6.79386 15.0378 6.79272H15.0368Z" stroke="black" stroke-opacity="0.2"/>
</svg>
