<svg width="20" height="20" viewBox="0 0 20 20" fill="none" xmlns="http://www.w3.org/2000/svg">
<path d="M10 9.99989C12.1508 9.99989 13.8942 8.25643 13.8942 6.10566C13.8942 3.95493 12.1508 2.21143 10 2.21143C7.84931 2.21143 6.10577 3.95493 6.10577 6.10566C6.10577 8.25643 7.84931 9.99989 10 9.99989Z" stroke="#515960" stroke-width="1.5" stroke-linecap="round" stroke-linejoin="round"/>
<path d="M10 9.99989C12.1508 9.99989 13.8942 8.25643 13.8942 6.10566C13.8942 3.95493 12.1508 2.21143 10 2.21143C7.84931 2.21143 6.10577 3.95493 6.10577 6.10566C6.10577 8.25643 7.84931 9.99989 10 9.99989Z" stroke="black" stroke-opacity="0.2" stroke-width="1.5" stroke-linecap="round" stroke-linejoin="round"/>
<path d="M3.87019 16.1848C3.87019 14.0594 5.59319 12.3364 7.71862 12.3364H12.3054C14.4308 12.3364 16.1538 14.0594 16.1538 16.1848C16.1538 17.0704 15.4359 17.7883 14.5503 17.7883H5.47371C4.58811 17.7883 3.87019 17.0704 3.87019 16.1848Z" stroke="#515960" stroke-width="1.5"/>
<path d="M3.87019 16.1848C3.87019 14.0594 5.59319 12.3364 7.71862 12.3364H12.3054C14.4308 12.3364 16.1538 14.0594 16.1538 16.1848C16.1538 17.0704 15.4359 17.7883 14.5503 17.7883H5.47371C4.58811 17.7883 3.87019 17.0704 3.87019 16.1848Z" stroke="black" stroke-opacity="0.2" stroke-width="1.5"/>
</svg>
